<?xml version="1.0" encoding="utf-8"?>
<!-- Generator: Adobe Illustrator 15.0.0, SVG Export Plug-In . SVG Version: 6.00 Build 0)  -->
<!DOCTYPE svg PUBLIC "-//W3C//DTD SVG 1.1//EN" "http://www.w3.org/Graphics/SVG/1.1/DTD/svg11.dtd">
<svg version="1.1" id="Layer_1" xmlns="http://www.w3.org/2000/svg" xmlns:xlink="http://www.w3.org/1999/xlink" x="0px" y="0px"
	 width="30px" height="16px" viewBox="-7 0 30 16" enable-background="new -7 0 30 16" xml:space="preserve">
<path d="M21.232,0H-5.333C-6.035,0-6.64,0.604-6.64,1.409v13.284C-6.64,15.396-6.035,16-5.333,16h26.565
	c0.604,0,1.107-0.402,1.309-0.905l0.1-0.203V1.308C22.541,0.604,21.938,0,21.232,0z M14.792,6.842l6.239-4.327v10.666L14.792,6.842z
	 M3.02,7.748l5.232,3.723l5.232-3.723l6.743,6.741H-3.722L3.02,7.748z M8.252,9.558l-11.37-8.048h22.74L8.252,9.558z M1.813,6.842
	l-6.843,6.944V2.012L1.813,6.842z"/>
</svg>
