<?xml version="1.0" encoding="utf-8"?>
<!-- Generator: Adobe Illustrator 15.0.0, SVG Export Plug-In . SVG Version: 6.00 Build 0)  -->
<!DOCTYPE svg PUBLIC "-//W3C//DTD SVG 1.1//EN" "http://www.w3.org/Graphics/SVG/1.1/DTD/svg11.dtd">
<svg version="1.1" id="Layer_1" xmlns="http://www.w3.org/2000/svg" xmlns:xlink="http://www.w3.org/1999/xlink" x="0px" y="0px"
	 width="18px" height="16px" viewBox="0 0 18 16" enable-background="new 0 0 18 16" xml:space="preserve">
<path fill-rule="evenodd" clip-rule="evenodd" fill="#00A79D" d="M9,0C4.47,0,0.798,3.672,0.798,8.203
	c0,3.625,2.35,6.698,5.609,7.784c0.41,0.075,0.56-0.179,0.56-0.396c0-0.195-0.007-0.711-0.011-1.396
	c-2.281,0.496-2.763-1.099-2.763-1.099c-0.373-0.947-0.911-1.2-0.911-1.2c-0.744-0.508,0.057-0.498,0.057-0.498
	c0.823,0.058,1.256,0.845,1.256,0.845c0.731,1.254,1.919,0.893,2.387,0.682c0.075-0.53,0.287-0.891,0.521-1.096
	c-1.822-0.208-3.736-0.911-3.736-4.054c0-0.896,0.319-1.628,0.844-2.201c-0.084-0.208-0.366-1.042,0.081-2.17
	c0,0,0.688-0.221,2.255,0.841C7.601,4.061,8.303,3.969,9,3.967c0.696,0.002,1.398,0.094,2.054,0.276
	c1.565-1.062,2.253-0.841,2.253-0.841c0.447,1.129,0.166,1.963,0.082,2.17c0.524,0.573,0.842,1.305,0.842,2.201
	c0,3.151-1.917,3.843-3.744,4.046c0.295,0.254,0.558,0.755,0.558,1.52c0,1.098-0.012,1.981-0.012,2.251
	c0,0.219,0.148,0.475,0.565,0.395c3.256-1.088,5.604-4.159,5.604-7.783C17.202,3.672,13.529,0,9,0z"/>
</svg>
