<?xml version="1.0" encoding="utf-8"?>
<!-- Generator: Adobe Illustrator 15.0.0, SVG Export Plug-In . SVG Version: 6.00 Build 0)  -->
<!DOCTYPE svg PUBLIC "-//W3C//DTD SVG 1.1//EN" "http://www.w3.org/Graphics/SVG/1.1/DTD/svg11.dtd">
<svg version="1.1" id="Layer_1" xmlns="http://www.w3.org/2000/svg" xmlns:xlink="http://www.w3.org/1999/xlink" x="0px" y="0px"
	 width="2560px" height="1440px" viewBox="0 0 2560 1440" enable-background="new 0 0 2560 1440" xml:space="preserve">
<g id="name">
	<text transform="matrix(0.9814 0 0 1 880.3525 810.7598)" font-family="'DINAlternate-Bold'" font-size="108">J   RDAN RIDDICK</text>
</g>
<path id="circle_1_" fill="none" stroke="#000000" stroke-width="6" stroke-miterlimit="10" d="M970.5,772
	c0,156.021-63.24,297.271-165.484,399.516C702.771,1273.761,561.521,1337,405.5,1337c-156.021,0-297.271-63.24-399.516-165.484
	C-96.261,1069.271-159.5,928.021-159.5,772S-96.26,474.729,5.984,372.484C108.229,270.24,249.479,207,405.5,207
	c156.021,0,297.271,63.24,399.516,165.484C907.261,474.729,970.5,615.979,970.5,772z"/>
<path id="octagon_1_" display="none" fill="none" stroke="#000000" stroke-width="6" stroke-miterlimit="10" d="M970.5,772.001
	l-169.814,409.972l-409.973,169.815l-409.972-169.815l-169.816-409.972L-19.26,362.028l409.973-169.815l409.972,169.814
	L970.5,772.001z"/>
<path id="square_1_" fill="none" stroke="#000000" stroke-width="6" stroke-miterlimit="10" d="M970.496,773.673l-314.619,312.933
	l-314.618,312.934l-312.932-314.62L-284.605,770.3L30.013,457.367l314.618-312.932l312.934,314.619L970.496,773.673z"/>
<path id="triangle_1_" display="none" fill="none" stroke="#000000" stroke-width="6" stroke-miterlimit="10" d="M-54.5,772
	l332.874-166.438l375.582-187.791L970.5,259.5V772v512.5l-303.876-151.938L272.447,935.474L-54.5,772z"/>
<g id="dancer">
	<ellipse fill="#FFFFFF" cx="970.5" cy="772" rx="27" ry="38.5"/>
	<text transform="matrix(1 0 0 1 937.5 810.7598)" font-family="'DINAlternate-Bold'" font-size="108">O</text>
</g>
<polygon id="work" fill="none" stroke="#000000" stroke-width="6" stroke-miterlimit="10" points="2080,1170 1280,1170 480,1170 
	480,720 480,270 1280,270 2080,270 2080,720 "/>
</svg>
