<?xml version="1.0" encoding="utf-8"?>
<!-- Generator: Adobe Illustrator 15.0.0, SVG Export Plug-In . SVG Version: 6.00 Build 0)  -->
<!DOCTYPE svg PUBLIC "-//W3C//DTD SVG 1.1//EN" "http://www.w3.org/Graphics/SVG/1.1/DTD/svg11.dtd">
<svg version="1.1" id="Layer_1" xmlns="http://www.w3.org/2000/svg" xmlns:xlink="http://www.w3.org/1999/xlink" x="0px" y="0px"
	 width="16px" height="16px" viewBox="0 0 16 16" enable-background="new 0 0 16 16" xml:space="preserve">
<path d="M11.95,0h-7.9c-2.2,0-4,1.8-4,4v8c0,2.2,1.8,4,4,4h7.9c2.2,0,4-1.8,4-4V3.9C15.95,1.7,14.15,0,11.95,0z M14.45,11.9
	c0,1.4-1.1,2.5-2.5,2.5h-7.9c-1.399,0-2.5-1.1-2.5-2.5V6.7H4.65c-0.2,0.5-0.4,1-0.4,1.6c0,2.101,1.7,3.801,3.8,3.801
	c2.101,0,3.801-1.7,3.801-3.801c0-0.6-0.101-1.1-0.4-1.6h3V11.9z M6.55,8.3c0-0.899,0.7-1.6,1.601-1.6c0.899,0,1.6,0.7,1.6,1.6
	C9.65,9.2,8.95,9.9,8.05,9.9C7.25,9.9,6.55,9.2,6.55,8.3z M14.45,5.3h-4.2c-0.6-0.5-1.399-0.699-2.2-0.699c-0.8,0-1.6,0.3-2.2,0.699
	h-4.3V3.9c0-1.4,1.101-2.5,2.5-2.5h7.9c1.4,0,2.5,1.1,2.5,2.5V5.3z M12.851,2.3h-1.4c-0.2,0-0.4,0.2-0.4,0.4v1.4
	c0,0.199,0.2,0.399,0.4,0.399h1.4c0.199,0,0.399-0.2,0.399-0.399V2.8C13.351,2.5,13.15,2.3,12.851,2.3"/>
</svg>
