<?xml version="1.0" encoding="utf-8"?>
<!-- Generator: Adobe Illustrator 15.0.0, SVG Export Plug-In . SVG Version: 6.00 Build 0)  -->
<!DOCTYPE svg PUBLIC "-//W3C//DTD SVG 1.1//EN" "http://www.w3.org/Graphics/SVG/1.1/DTD/svg11.dtd">
<svg version="1.1" id="Layer_1" xmlns="http://www.w3.org/2000/svg" xmlns:xlink="http://www.w3.org/1999/xlink" x="0px" y="0px"
	 width="20px" height="16px" viewBox="-2 0 20 16" enable-background="new -2 0 20 16" xml:space="preserve">
<path d="M17.783,1.937c-0.715,0.305-1.527,0.509-2.345,0.611c0.817-0.51,1.527-1.326,1.731-2.243
	c-0.814,0.51-1.629,0.816-2.547,1.02C13.91,0.51,12.789,0,11.669,0C9.426,0,7.593,1.834,7.593,4.076c0,0.307,0,0.612,0.102,0.918
	C4.332,4.892,1.375,3.261-0.662,0.815c-0.306,0.612-0.51,1.325-0.51,2.038c0,1.427,0.713,2.65,1.834,3.363
	c-0.713,0-1.324-0.203-1.834-0.509l0,0c0,1.936,1.427,3.567,3.261,3.975C1.783,9.783,1.375,9.783,1.07,9.783s-0.509,0-0.713-0.102
	c0.51,1.631,2.038,2.75,3.771,2.853c-1.427,1.122-3.16,1.733-4.994,1.733c-0.306,0-0.611,0-0.917-0.101
	C0.051,15.286,2.09,16,4.433,16c7.439,0,11.515-6.217,11.515-11.516c0-0.204,0-0.306,0-0.51C16.561,3.464,17.17,2.751,17.783,1.937z
	"/>
</svg>
