<?xml version="1.0" encoding="utf-8"?>
<!-- Generator: Adobe Illustrator 17.1.0, SVG Export Plug-In . SVG Version: 6.00 Build 0)  -->
<!DOCTYPE svg PUBLIC "-//W3C//DTD SVG 1.1//EN" "http://www.w3.org/Graphics/SVG/1.1/DTD/svg11.dtd">
<svg version="1.1" id="Layer_1" xmlns="http://www.w3.org/2000/svg" xmlns:xlink="http://www.w3.org/1999/xlink" x="0px" y="0px"
	 viewBox="0 0 19 19" enable-background="new 0 0 19 19" xml:space="preserve">
<path d="M14.2,0H4.7C2.1,0,0,2.1,0,4.7v9.5C0,16.9,2.1,19,4.7,19h9.5c2.6,0,4.7-2.1,4.7-4.7V4.7C19,2.1,16.8,0,14.2,0z M17.2,14.3
	c0,1.6-1.3,3-3,3H4.7c-1.6,0-3-1.3-3-3V8.1h3.7C5.2,8.7,5.1,9.3,5.1,10c0,2.5,2,4.5,4.5,4.5c2.5,0,4.5-2,4.5-4.5
	c0-0.7-0.2-1.3-0.4-1.9h3.6V14.3z M7.7,10c0-1,0.8-1.9,1.9-1.9c1,0,1.9,0.8,1.9,1.9c0,1-0.8,1.9-1.9,1.9C8.5,11.9,7.7,11,7.7,10z
	 M17.2,6.3h-5c-0.7-0.5-1.6-0.8-2.6-0.8c-1,0-1.9,0.3-2.6,0.8H1.8V4.7c0-1.6,1.3-3,3-3h9.5c1.6,0,3,1.3,3,3V6.3z M15.3,2.8h-1.6
	c-0.3,0-0.5,0.2-0.5,0.5V5c0,0.3,0.2,0.5,0.5,0.5h1.6c0.3,0,0.5-0.2,0.5-0.5V3.3C15.8,3,15.6,2.8,15.3,2.8"/>
</svg>
